# xmcd
#
# Track frame offsets: 
#        150
#        12145
#        24965
#        36005
#        47767
#        58325
#        71762
#        84217
#        97080
#        108865
#
# Disc length: 1584 seconds
#
# Revision: 0
# Processed by: cddbd v1.5.1PL0 Copyright (c) Steve Scherf et al.
# Submitted via: ExactAudioCopy v0.95a5
#
DISCID=77062e0a
DTITLE=Hank Snow - All American Country
DYEAR=1900
DGENRE=Country
TTITLE0=Marriage Vow
TTITLE1=I'm Movin On
TTITLE2=Music Makin' Mamma From Memphis
TTITLE3=I Went To Your Wedding
TTITLE4=When Mexican Joe Met Jole Blon
TTITLE5=I Don't Hurt Anymore
TTITLE6=Yellow Roses
TTITLE7=Stolen Moments
TTITLE8=Tangled Mind
TTITLE9=Big Wheels
EXTD=
EXTT0=
EXTT1=
EXTT2=
EXTT3=
EXTT4=
EXTT5=
EXTT6=
EXTT7=
EXTT8=
EXTT9=
PLAYORDER=
